<svg xmlns="http://www.w3.org/2000/svg" width="375" height="288" fill="none">
    <path fill="#FF7A00" fill-rule="evenodd" d="M115.324 111.057c1.97-9.058 3.827-18.313 6.751-27.018 1.83-5.447 3.769-10.845 5.711-16.237.269-.749.383-1.47.907-1.844.7-.497 2.148-.486 2.937-.658 11.218-2.432 22.552-4.288 33.923-5.333 12.977-1.192 25.628-.646 38.468 1.854 10.981 2.138 21.854 5.085 32.608 8.459q2.371.743 4.735 1.523c.734.243 1.952.366 2.592.873 1.368 1.082 1.832 5.517 2.345 7.396.686 2.519 1.087 5.978 2.41 8.12 1.972 3.19 4.973 5.956 7.416 8.608 8.529 9.252 17.878 17.693 28.892 22.267 17.04 7.077 35.008 11.513 52.66 15.898l1.233.305-21.437 28.065c-1.325 1.734-1.18 2.044-3.053 1.561-9.386-2.421-18.756-5.061-27.972-8.279-4.518-1.577-9.113-3.214-13.317-5.769-5.786-3.515-11.216-7.862-16.501-12.326-4.725-3.99-9.339-8.165-13.87-12.458-.893-.846-4.116-4.926-5.161-4.66-.901.229-2.462 2.654-3.122 3.361a678 678 0 0 1-5.263 5.573c-2.807 2.935-5.674 6.529-8.953 8.738-3.456 2.328-7.416 3.914-11.063 5.768a2328 2328 0 0 1-6.107 3.092c-.532.268-1.274.851-1.848.865-1.698.043-4.163-1.588-5.737-2.224a241 241 0 0 1-12.034-5.23c-8.485-3.975-17.81-8.293-24.793-15.446-1.218-1.247-2.409-2.644-3.215-4.311-.28-.578-.695-1.382-.724-2.065-.046-1.088.472-1.301 1.241-1.982 3.972-3.509 8.255-6.568 12.467-9.653a388 388 0 0 1 2.976-2.16l-49.213 4.672z" clip-rule="evenodd"/>
    <path fill="#000" fill-rule="evenodd" d="M188.606.27c5.2.28 10.53.566 15.684 1.432 5.138.861 9.932 3.066 14.576 5.737 8.373 4.814 16.93 10.666 22.315 19.926 2.518 4.33 4.572 8.863 8.047 12.27.813.798 1.699 1.756 2.778 2 .858.194 1.615-.217 2.455-.266 1.604-.094 2.211.905 2.211 2.789 1.204-.568 2.514-1.082 3.827-.874 1.097.175 1.97.958 3.024 1.286 1.901.594 3.762-.294 5.57-.955 4.567-1.67 9.584-2.936 14.382-2.34 3.161.393 6.991 2.013 5.354 6.826-1.357 3.993-6.432 6.014-9.638 7.007-2.727.845-6.393.091-6.163 4.54.161 3.104.559 6.434 3.35 7.442 1.53.552 6.952 1.375 3.786 4.177-2.338 2.068-3.155 5.71-4.933 8.445-2.267 3.485-5.34 6.303-8.932 7.575-4.02 1.424-8.273 1.15-12.402 1.703 2.908 4.745 7.107 8.008 10.929 11.616 4.018 3.794 7.895 7.94 12.546 10.644 4.169 2.424 8.672 4.107 12.978 6.163 4.522 2.158 9.075 4.292 13.743 5.974 9.415 3.392 19.318 5.762 28.998 7.843 4.777 1.027 9.46.876 14.285.968 4.95.094 9.896 1.12 14.755 2.173 2.355.512 4.733.834 7.088 1.343 1.13.244 5.604.783 5.765 2.74.259 3.187-2.655 4.973-4.79 5.862-.912.38-2.381.324-3.17.847-.855.565-.521 1.396-.619 2.489-.142 1.59-.862 2.733-1.964 3.614-.907.726-2 .697-1.375 2.071.288.633 1.01 1.032 1.342 1.7.38.762.555 1.597.478 2.474-.135 1.536-.993 2.707-2.19 3.25-1.912.868-4.157.254-6.116-.028-3.278-.471-6.604-.519-9.838-1.366-3.373-.884-6.654-2.247-10.03-3.152-1.731-.464-3.466-.853-5.157-1.497-1.101-.418-2.692-1.506-3.865-1.165-1.098.319-1.956 1.886-2.674 2.796-.991 1.256-1.95 2.545-2.957 3.783a35 35 0 0 1-2.08 2.366c-.237.242-1.7 1.299-1.72 1.583-.057.802 1.539.788 1.881 1.107 1.988 1.857-.998 3.032-2.287 2.939-2.97-.215-5.955-.645-8.897-1.161-7.004-1.229-13.989-2.555-20.686-5.328-6.624-2.744-13.088-5.662-19.214-9.752-5.882-3.924-11.57-8.362-17.125-12.897-2.695-2.201-5.409-4.482-7.685-7.286-2.226-2.742-4.041-5.891-5.887-8.989-4.42 5.047-8.674 10.355-13.423 14.982-4.517 4.401-9.947 6.753-15.201 9.611.171 1.299 5.306 2.077 6.244 2.415 4.283 1.54 8.394 4.013 12.56 5.952 6.931 3.226 13.507 7.424 15.815 16.383 2.269 8.809-.363 17.676-3.573 25.633-3.789 9.394-8.289 18.095-13.73 26.284-2.314 3.484-4.808 6.691-7.347 9.935-2.167 2.769-4.025 6.047-3.117 9.982 1.744-.644 2.064.964.923 2.326-1.013 1.21-2.764 1.445-4.118 1.645-4.101.608-8.339.394-12.445-.058-7.477-.824-14.971-3.055-21.741-6.894-3.368-1.909-4.586 1.17-6.903 3.555-1.822 1.877-4.331 3.093-5.716 5.521-1.14 1.997-.396 5.153 1.971 4.405 1.841-.583 3.32-3.011 5.271-3.105 3.461-.166-3.07 5.673-3.906 6.386 1.655 1.749 3.531-.65 5.199-1.05 1.6-.384 2.047.595 1.194 2.172-.665 1.229-2.753 2.1-1.364 3.595 1.151 1.239 3.702 1.891 5.115 2.434a68.8 68.8 0 0 0 13.383 3.673c1.482.25 3.857.09 5.059 1.332 1.584 1.638.82 4.353.018 6.23-3.038 7.108-9.355 10.602-15.843 11.114-3.996.315-8.029.01-12.038.265-4.392.279-8.794.694-13.197.523-7.077-.276-11.58-6.323-15.108-12.973-2.242-4.226-4.308-8.573-6.249-13.001-.758-1.729-2.345-3.521-2.615-5.465-.244-1.749.7-3.152 1.618-4.391 2.414-3.257 5.319-5.743 8.157-8.435 1.62-1.537 2.243-2.81 2.965-5.046.607-1.883 1.775-2.688 2.803-4.191 1.131-1.652.776-1.945-.106-3.295-.923-1.415-.56-3.498-.173-5.099.556-2.296 1.749-2.801 3.53-3.541 1.624-.674 3.001-1.858 4.441-2.956 7.113-5.422 13.816-11.558 21.017-16.829 7.105-5.201 14.53-9.795 21.31-15.598-5.506-.875-10.36-4.39-15.554-6.471-2.666-1.068-5.306-2.209-7.885-3.546-.985-.51-2.132-.964-3.011-1.715-.883-.754-1.561-1.746-2.487-2.46-2.196-1.694-4.806-2.658-7.168-3.978-2.55-1.426-5.067-2.985-7.437-4.799-2.212-1.694-4.336-3.631-6.176-5.868-1.466-1.783-2.891-4.106-4.965-4.925.217 3.416 3.797 6.244 5.758 8.3 3.184 3.335 6.493 6.17 10.051 8.925-3.991 4.042-8.855 6.674-13.529 9.404-5.255 3.07-10.363 6.472-15.596 9.59-4.434 2.64-9.098 4.675-13.605 7.129-4.862 2.647-9.866 4.867-14.939 6.881-4.59 1.822-8.913 3.766-13.245 6.324-4.21 2.487-8.716 4.389-13.221 5.986-5.061 1.793-9.89 3.499-14.758 5.958-4.39 2.216-8.797 3.633-13.443 4.839-1.534.398-3.504 1.128-4.58-.628-.814-1.331-.936-3.383-1.17-4.949-.896-5.99-.967-12.075-1.772-18.075-3.058 1.091-5.955 2.433-9.18 2.606-2.028.109-3.26.356-3.766 2.973 1.173.157 5.365.226 5.478 2.19.103 1.772-2.434 1.79-3.333 1.839-1.61.086-3.068-.226-3.928 1.637 1.266.552 4.072-.455 4.633 1.557.722 2.596-2.557 2.589-3.737 2.799-2.059.364-1.848 2.275-1.706 4.318.185 2.688.326 5.379.633 8.054.656 5.714 1.78 11.341 2.312 17.076.46 4.959.718 9.722-2.28 13.674-1.206 1.589-2.882 3.418-4.777 3.607-1.922.191-1.887-1.4-3.084-2.572-.734-.718-1.705-.865-2.57-1.252-1.05-.471-2.07-1.16-3.014-1.875a18.3 18.3 0 0 1-4.492-4.915c-4.812-7.687-6.533-19.171-7.01-28.49-.303-5.927 0-11.861.46-17.764.248-3.179.497-6.36.822-9.53.101-.982.27-1.966.332-2.951.036-.564-.194-1.704.05-2.244-.311.689-.862.179-1.41-.364-1.129-1.121-.781-3.275-.177-4.749 1.82-4.444 7.275-4.616 10.824-4.962 9.54-.929 18.602-3.953 27.735-7.182-1.289-2.282.739-3.788 2.31-4.572 2.423-1.209 4.926-2.272 7.372-3.426 5.523-2.608 10.932-5.039 16.715-6.703 5.24-1.507 10.309-4.009 15.478-5.842 5.34-1.895 10.585-4.061 15.837-6.268 10.404-4.371 20.817-8.837 30.914-14.139 2.552-1.34 4.99-2.894 7.453-4.445 2.001-1.259 4.349-2.182 6.046-4.002 1.619-1.737 2.589-4.152 4.35-5.73 1.585-1.421 3.754-1.44 5.068-3.205 1.776-2.385 3.896-3.434 6.308-4.833.774-.449 5.874-2.72 5.77-4.009-3.644 0-7.385 1.282-10.989 1.879-3.812.631-7.62 1.333-11.46 1.682-6.222.565-12.441.412-18.636-.385-.926-.119-4.64-1.02-5.28.154-.488.894.725 1.959.737 2.92.018 1.411-.944 2.167-2.032 1.677-2.121-.953-1.81-4.992-1.612-7.041.379-3.92 1.222-7.805 1.959-11.646-4.374 2.632-8.527 6.011-12.294 9.724-2.917 2.876-5.552 6.776-8.976 8.827-3.287 1.969-5.242.289-5.107-4.046.062-1.987.403-3.872.985-5.722.275-.874 1.404-3.348.875-4.279-3.005 2.832-5.989 5.671-9.143 8.271-2.23 1.838-5.462 4.704-8.372 3.975-2.57-.644-2.32-3.988-1.504-6.241.706-1.955 1.976-3.69 3.235-5.183 1.041-1.233 2.52-2.339 3.042-4.049-3.453 1.835-7.008 3.223-10.625 4.512-2.572.916-4.37 4.723-7.361 4.16-2.995-.563-1.802-4.937-.607-6.839.836-1.33 1.993-2.502 3.116-3.485 1.094-.96 2.759-1.796 3.297-3.392-3.498.776-7.015 2.126-10.614 1.877-2.138-.148-5.706-1.251-5.284-4.648.428-3.44 4.302-3.703 6.48-4.345 2.97-.875 5.813-2.517 8.68-3.77 5.782-2.527 11.677-4.554 17.593-6.569l1.869-.636c6.677-2.275 13.393-4.213 20.154-6.103 3.341-.934 6.671-1.953 10.039-2.75 3.258-.772 6.568-1.218 9.802-2.14-2.725-4.862.574-8.858 4.138-11.172-2.26-.54-4.558-.865-6.799-1.52-1.913-.559-3.757-1.418-5.685-1.913-3.312-.85-6.62-1.297-9.448-3.721-5.344-4.583-5.798-11.875-1.296-17.393 4.544-5.57 11.214-8.177 17.633-8.436 7.184-.29 15.358 1.356 22.081 4.363 3.302 1.477 6.74 3.356 9.571 5.872 1.926 1.71 4.971 4.99 7.555 4.99-3.095-4.426-6.894-9.002-7.453-14.996-.53-5.674 1.648-11.706 5.301-15.376C167.609-.877 179.656-.213 188.606.27m-41.62 243.208c-1.906 3.504-4.541 6.348-7.029 9.256-.858 1.002-2.581 2.278-2.664 3.849-.067 1.283 1.264 2.725 1.845 3.733 3.074 5.33 5.605 11.217 9.36 15.951 4.243 5.35 9.087 6.39 15.096 6.405 6.673.017 13.434 1.004 20.095.588 5.642-.352 11.204-3.322 14.01-9.359-1.828-1.114-4.429-.583-6.41-.558-2.701.033-5.338-.024-8.007-.58-2.418-.503-4.809-1.258-7.084-2.361-1.177-.57-2.341-1.223-3.425-2.016-.794-.579-1.39-1.468-2.17-2.037-2.875-2.099-6.196 4.575-9.27 4.446-1.882-.078-1.201-2.267-.417-3.491 1.414-2.211 3.88-3.576 5.743-5.188-1.734-1.887-3.693.092-5.344 1.078-2.064 1.232-4.209 2.746-6.515 3.208.173-3.513 4.216-5.397 6.446-6.825.993-.637 2.237-1.227 2.481-2.625.184-1.052-.131-2.548-.224-3.61-.118-1.351-.206-1.782-1.422-2.163-1.475-.462-2.961-.328-4.438-.905-4.045-1.579-7.191-3.922-10.657-6.796M15.547 188.111c-.988.324-1.985.604-2.988.854-1.986.495-3.974 1.009-5.966 1.459-1 .225-2.11.082-2.404 1.21-.151.578.23 1.616.295 2.216.118 1.083.125 2.181.136 3.271.104 10.046-1.672 20.034-.89 30.079.66 8.489 2.207 19.224 7.482 25.547 2.277 2.729 5.078 5.692 7.945 7.558 2.248 1.461 5.387-2.207 5.846-4.747.33-1.82-.22-3.74-.576-5.495-.458-2.248-.922-4.495-1.376-6.744-.968-4.8-1.849-9.646-2.127-14.581-.091-1.621-.072-3.183.006-4.798.042-.876.39-2.989-.128-3.74-.67-.971-2.203-.336-3.11-.253-.996.091-1.967.021-2.94-.279-2.314-.716-2.72-2.89-.193-3.898 1.765-.703 4.99.316 6.472-1.037 1.741-1.59-1.778-1.808-2.6-1.85-1.095-.055-4.725.284-4.54-2.128.138-1.787 3.263-1.906 4.356-1.982 2.336-.162 5.29.872 6.3-2.457.405-1.334-2.03-2.011-2.642-2.673-1.486-1.607-1.973-4.363-2.1-6.621-.126-2.22 1.723-9.917-1.094-10.121-.865-.062-2.303.927-3.164 1.21m138.538 44.419c-1.657 2.334-3.09 4.89-4.634 7.329 3.621 2.362 7.325 4.262 11.07 6.292 1.702.925 2.896 1.657 4.544.256 1.182-1.005 2.069-2.432 3.222-3.477 1.659-1.501 3.391-2.877 5.091-4.307-5.015-2.164-10.108-4.062-15.122-6.231-1.876-.81-2.817-1.768-4.171.138m-41.3-7.411c1.072 1.285-.993 4.847-1.399 6.066 3.325-.311 6.624-.932 9.89-1.729 1.112-.271.702 1.329.285 1.857-.514.653-1.543.851-2.231 1.084-2.532.858-5.128 1.27-7.726 1.728 1.189 1.729 4.049 4.434 3.128 7.034-1.661-1.692-2.856-3.944-4.694-5.407-.531.936-1.632 4.239-2.839 4.037-1.895-.318.025-4.178.421-5.107-1.276 0-6.072 1.324-6.741-.533-.684-1.9 3.943-1.838 4.799-2.287l-.16-.23-.16-.228c-.639-.912-1.254-1.811-1.34-3.062 1.431.582 2.386 3.233 3.959 3.271 1.491.037 2.156-2.612 2.688-3.866.302-.713 1.328-3.578 2.12-2.628m161.364-24.984c3.206 3.198 1.028 9.645-1.398 12.544-2.718 3.248-8.771 6.231-12.216 2.921-1.886-1.812-1.205-4.576-.741-6.986.517-2.679.838-4.937 2.714-6.774 2.92-2.86 8.388-4.948 11.641-1.705m-6.509 1.858c-3.128.786-6.298 4.481-7.041 8.289-.976 4.993 3.41 5.358 6.298 4.607 3.634-.943 7.495-4.093 7.68-9.034.16-4.264-4.506-4.473-6.937-3.862M40.01 180.406c-4.684 2.061-9.087 4.881-14.002 6.103-1.5.374-2.116.782-2.486 2.434-.52 2.311-1.013 4.654-.641 7.07.77 5.014 6.673 4.4 9.951 4.203 1.683-.101 4.92.263 6.38-.979 1.067-.906.62-2.607.453-3.93-.621-4.948.057-9.956.346-14.901m255.399-47.787c-1.725.385-4.707 2.046-2.234 4.13 1.65 1.389 4.105 1.557 6.043 1.901 3.786.67 7.827 1.249 11.112 3.773 6.087 4.678 5.342 13.505 3.521 20.729 1.311.913 5.163-5.056 5.889-6.027q4.414-5.907 8.866-11.776c1.27-1.673-9.142-7.454-10.077-7.974-4.946-2.751-9.563-4.562-15.11-5.034-2.631-.224-5.407-.302-8.01.278m-21.474-14.641c-.472 1.408.356 2.047 1.116 3.02 4.253 5.439 7.248 13.136 9.616 19.888 1.181 3.367 2.008 6.762 2.739 10.289.718 3.461 2.996 4.386 5.727 5.368 6.289 2.264 12.909 3.021 19.22 5.256 1.691.599 2.023-3.795 2.129-4.91.302-3.171.022-6.481-1.388-9.276-2.665-5.283-8.007-6.407-12.772-7.307-2.725-.514-6.315-1.046-8.472-3.248-1.082-1.106-1.236-2.374-.391-3.747 1.539-2.505 4.249-2.827 6.67-3.031 1.18-.099 8.482.773 8.721-.248-3.636-1.401-7.368-2.325-10.951-3.926-2.794-1.25-5.611-2.43-8.431-3.599l-2.821-1.169c-2.868-1.189-5.494-2.635-8.245-4.066-1.034-.538-1.982-.737-2.467.706m61.674 22.915c-.911 1.448-1.814 2.663-2.497 4.29-.796 1.897-2.118 3.107-3.222 4.737 5.736 1.196 11.209 2.716 16.736 4.908 2.837 1.125 5.768 1.681 8.671 2.487 2.435.676 5.03 1.725 7.551 1.105-2.872-4.678-10.53-3.385-12.547-9.05-1.372-3.854 2-6.929 4.758-7.597 4.816-1.169 9.95-1.259 14.841-1.675.052-2.212-17.705-3.358-19.461-3.537-3.117-.319-6.371-1.01-9.482-1.137-2.888-.119-3.832 3.06-5.348 5.469m-67.758-16.181c-1.711 1.955-3.385 3.952-5.094 5.909-1.123 1.286-2.645 2.657-3.531 4.189-1.13 1.958.85 2.899 2.17 3.825 3.331 2.338 6.773 4.521 10.162 6.745 3.044 1.999 6.211 4.542 9.572 5.711 1.797.625 3.485 1.596 5.219 2.416-.836-8.873-5.146-16.932-9.12-24.329-.913-1.699-1.856-3.373-2.768-5.072-.46-.854-1.313-2.872-2.277-3.046-1.425-.258-3.47 2.665-4.333 3.652m87.143 22.584c2.084 1.411 4.172 2.128 6.522 1.062a37 37 0 0 0 1.716-.884c-1.566-2.525-6.197-.986-8.238-.178m-172.552-30.88c-3.693 1.969-7.644 3.93-10.855 6.899-1.186 1.096-3.835 3.399-3.215 5.488.53 1.788 3.463 3.311 4.855 3.856 7.327 2.867 15.665.781 22.41 6.042 1.826 1.424 2.421 3.285 3.777 5.157 1.226 1.693 2.779 1.483 4.427.78 2.164-.922 4.158-2.335 6.331-3.241 1.111-.463 2.999-.77 3.115-2.542.543-8.354-.965-18.997-7.194-24.109-6.993-5.737-16.64-2.066-23.651 1.67m-3.961 19.468c-.178 1.059 6.753 2.977 7.506 3.222 4.185 1.363 8.095 4.603 12.431 5.126.753-1.987-5.252-5.152-6.201-5.56-4.334-1.86-9.184-2.198-13.736-2.788m136.111-3.71c5.254 2.546 10.348 5.663 14.753 9.997 1.519 1.495 5.21-5.599 6.036-6.686-6.999-.344-13.896-1.923-20.789-3.311m-98.215-49.898c-4.871 3.804-9.114 8.779-14.462 11.695 1.673.312 3.5-.97 5.099-1.419 1.556-.437 3.13-.726 4.645-1.345.931-.38 4.775-2.836 5.496-1.171 1.127 2.6-6.811 4.399-7.94 4.842a369 369 0 0 0-11.371 4.696c-3.653 1.578-7.305 3.277-11.081 4.41-3.835 1.152-7.901 1.448-11.588 3.236-3.26 1.581-6.062 4.198-9.207 6.045-3.154 1.852-6.738 2.997-9.457 5.753 2.956 3.729 6.452 6.852 10.277 9.23.612-5.688 6.251-8.926 10.109-11.112 8.41-4.765 21.04-11.952 29.612-3.876 6.265 5.902 7.114 17.102 7.114 25.87 1.697-.638 3.246-1.654 4.822-2.613 1.092-.665 1.105-2.516 1.242-3.752.225-2.024.688-3.984 1.22-5.926 1.176-4.295 2.648-8.485 4.051-12.682 2.271-6.787 5.07-13.482 6.465-20.623.911-4.66 1.995-12.67-2.758-14.984-4.112-2-8.949 1.118-12.288 3.726m-21.274-18.97c-.794.63-.498 2.518-.444 3.465.197 3.444.074 6.903.171 10.354.119 4.204.145 11.914 3.812 14.272 2.509 1.612 5.628-.804 7.63-2.45 3.387-2.782 6.494-6.014 9.928-8.73 4.071-3.22 11.785-7.676 15.68-1.617 2.108 3.279 1.813 8.165 1.287 11.98-.694 5.033-2.316 9.807-3.927 14.511-3.328 9.713-6.801 19.584-8.652 29.866 4.22-2.965 7.501-7.238 11.183-10.991 2.73-2.782 6.784-5.977 7.414-10.511.142-1.024.981-1.754 1.557-2.439.751-.891 1.28-1.794 1.755-2.932 1.05-2.512 1.732-5.225 2.162-7.975.902-5.767.472-11.508-.36-17.241-.376-2.593.176-5.376-.335-7.903-.355-1.755-1.402-1.651-2.797-2.05-5.018-1.438-10.047-2.831-15.069-4.256-2.04-.578-4.258-1.664-6.376-1.628-1.738.03-3.198 1.255-4.699 2.143-2.463 1.457-6.378 4.006-9.207 2.557-3.296-1.689.545-5.5-1.108-7.304-1.133-1.237-4.52-.496-6.056-.803-.842-.168-2.777-.929-3.549-.317m51.866 49.808c-2.397.447-3.785 1.676-5.106 4.088-1.341 2.451-1.501 3.665.412 5.583 2.063 2.068 4.222 4.112 6.412 5.975 2.776 2.361 5.855 4.148 8.599 6.567 1.202 1.06 6.656-7.246 7.602-8.384 1.305-1.572 2.645-3.147 4.046-4.594.511-.528 2.116-1.753 2.117-2.652.002-2.272-4.26-4.305-5.631-4.93-3.072-1.401-6.294-1.967-9.567-2.025-2.902-.052-6.01-.164-8.884.372m10.681-9.994c-2.25 1.413-4.601 2.603-6.865 3.987-.804.49-5.869 3.006-5.614 4.509 5.701-.427 11.377-1.567 17.059-.262 2.552.586 4.984 1.568 7.117 3.381 1.615 1.372 2.846 4.008 4.45 1.662-3.274-2.194-6.223-5.101-9.126-7.924-1.271-1.235-2.578-2.398-3.868-3.6-.767-.714-2.033-2.455-3.153-1.753M122.808 70.28c-1.783.295-3.521.854-5.273 1.334-7.095 1.942-14.217 3.687-21.293 5.742-14.115 4.1-28.652 8.055-42.11 14.624 1.131 1.479 4.13.408 5.534.118 2.75-.568 5.417-1.56 8.133-2.31 2.657-.731 5.323-1.605 8.001-2.215 1.234-.281 3.41-.651 3.46 1.535.07 3.1-5.024 5.418-6.894 6.55-1.999 1.212-3.934 2.55-5.838 3.96-1.504 1.114-4.28 2.598-4.767 4.812 4.883-2.446 9.768-4.88 14.62-7.409 1.828-.952 3.68-1.85 5.42-3.011 1.16-.775 2.654-2.134 4.028-2.256 1.86-.166 2.169 1.83 1.384 3.442-.98 2.017-3.004 3.155-4.493 4.566-1.898 1.8-3.578 3.923-5.287 5.96-1.418 1.691-3.245 3.356-3.986 5.643 2.55 1.008 5.448-2.224 7.322-3.822 2.945-2.51 5.688-5.241 8.497-7.954 1.437-1.388 3.15-3.635 5.042-4.05 2.397-.525 2.199 2.714 1.617 4.5-1.3 3.993-4.341 7.321-4.558 11.821-.134 2.771 1.851 1.716 3.175.605 2.23-1.872 3.74-4.724 5.764-6.87 4.875-5.17 10.454-9.58 16.484-12.643 1.079-.548 1.467-2.516 1.795-3.698.49-1.766 1.053-3.477 1.642-5.202 1.289-3.78 2.347-7.864 4.153-11.355.504-.973 1.804-1.965.729-2.538-.585-.31-1.697.02-2.301.12m51.473-6.393c-1.827.252-3.675.229-5.505.457-2.987.372-1.684 4.667-2.165 7.255-1.417 7.618-8.247 9.056-13.423 5.463-2.912-2.023-4.66-4.921-6.226-8.312-.893-1.933-1.557-2.244-3.404-1.76-1.268.332-2.421.261-3.71.372-1.623.139-1.764.546-1.798 2.371-.029 1.621-.226 2.744-1.139 4.058-1.74 2.5-4.657 4.148-7.143 5.404-2.49 1.26-5.31 2.196-6.678 5.173-.689 1.501-1.428 3.293-1.628 4.999-.218 1.864.317 3.02-.602 4.74-1.911 3.574-2.787 7.48-3.754 11.543-.315 1.323-.439 1.867.783 2.231 1.753.522 4.243-.27 6.042-.354 1.284-.059 2.034-2.734 2.451-3.818.811-2.109 1.806-4.104 2.801-6.1 2.258-4.519 4.671-9.008 7.619-12.957 2.226-2.98 5.512-6.69 8.361-2.502 2.777 4.081 4.778 8.861 8.118 12.42 2.938 3.128 5.965 3.178 9.011.213 3-2.92 5.279-6.904 7.144-10.878 2.016-4.298 3.536-8.886 5.501-13.21.616-1.355 3.46-5.021 2.594-6.592-.586-1.06-2.429-.33-3.25-.216m15.295-.937c-1.607.09-3.225-.124-4.833-.162-2.91-.069-5.343.052-6.804 3.348-1.29 2.91-2.389 6.004-3.566 8.983-2.557 6.47-5.066 13.093-8.991 18.599-3.479 4.878-7.972 7.336-12.497 2.676-2.006-2.067-3.53-4.733-4.97-7.353-1.154-2.1-2.471-5.798-4.405-7.023-2.156-1.365-4.624 1.767-5.942 3.466-2.215 2.858-4.067 6.218-5.846 9.462-1.29 2.354-2.525 4.757-3.779 7.137-.508.966-2.578 4.124-1.889 5.327.691 1.205 4.063.381 5.039.27 2.33-.262 4.656-.357 6.987-.594 7.25-.737 14.393-2.62 21.662-3.123 4.788-.332 9.506-1.426 14.219-2.42 4.582-.966 9.195-1.626 13.729-2.903 2.665-.751 5.336-1.503 7.997-2.282.92-.27 5.271-1.005 5.542-2.419-2.996-.618-4.57-1.992-5.632-5.448-1.331-4.328-1.485-9.151-1.599-13.712-.043-1.754-.05-3.509-.051-5.264v-2.106c-.001-1.259.459-3.543-.501-4.415-.888-.808-2.841-.103-3.87-.044m59.481 27.949c.126 5.703-.737 11.45-2.718 16.661 2.072.392 4.538-2.682 6.277-3.712.67-.397 5.104-2.302 3.619-3.758-2.732-2.68-4.523-6.422-7.178-9.191m59.44 4.637c.608 1.418-.143 3.218-.55 4.563 3.163.899 6.313 1.782 9.5 2.544 2.401.575 1.563 2.278-.521 2.161-2.9-.164-5.597-1.616-8.482-1.804-2.748-.18-3.072 2.657-5.415 3.203.08-1.561 1.147-2.644 1.915-3.816-1.265-.767-2.557-1.479-3.783-2.324-.636-.438-2.391-2.274-1.715-3.25.682-.984 2.471.861 3.108 1.267.905.578 2.711 1.851 3.776 1.486 1.458-.5 1.154-2.975 2.167-4.03m-45.574-37.158c-1.283.105-2.679-.405-3.894.262-1.212.666-2.658 2.124-3.672 3.134-.981.979-1.469 2.167-2.688 2.745-1.219.577-2.467.526-2.937 2.288 1.105.358 3.275-.117 4.141.843 1.26 1.398-.938 2.936-1.849 3.377-1.308.63-2.377.426-3.713.307-.582-.051-.577-.263-1.053.078-1.767 1.263-.545 5.754.029 7.393 2.804 8.02 12.386 5.32 17.911 4.498-1.758-2.094-4.638-4.404-4.783-7.693-.043-.98.162-2.73 1.226-2.812.85-.065 1.871 1.454 2.401 2.053 1.569 1.774 3.601 4.716 5.871 4.97 3.036.341 5.371-5.47 6.63-8.005-1.547-.344-3.242-.323-4.142-2.118-1.069-2.133-1.088-5.4-1.069-7.802.016-2.044.567-4.28-1.745-4.381-2.129-.093-4.514.687-6.664.863M59.116 63.622c-.442 1.14-2.364 1.587-3.207 1.892-3.21 1.159-6.343 2.63-9.471 4.074-6.317 2.915-12.564 6.135-18.331 10.418-1.078.801-.55-.744-.27-1.3.627-1.25 1.946-2.134 2.931-2.898 2.665-2.072 5.489-3.527 8.436-4.912 5.897-2.771 11.884-5.71 17.932-7.955.701-.26 2.575-.852 1.98.68m73.254 5.647c-1.172.143-2.546-.172-3.673.28-1.469.59-1.227 1.783-1.662 3.25-.737 2.488-1.527 4.957-2.297 7.433 2.849-.157 5.578-2.823 7.993-4.358 1.366-.87 6.119-3.752 4.686-6.392-.908-1.671-3.745-.373-5.047-.213m32.425-4.34c-1.764-.038-3.704.594-5.49.699-2.394.14-4.751.679-7.142.81-1.573.085-3.118.467-4.674.718 1.549 4.24 4.571 7.95 8.368 9.485 2.996 1.212 7.188 1.418 9.235-1.935 1.178-1.93 3.101-9.704-.297-9.777m91.864-17.517c-1.924 1.511-3.466 3.676-5.073 5.608-4.025 4.837-8.19 10.017-9.933 16.648-.239.908 1.576 1.711 2.067 1.746 1.038.075 1.249-.545 1.657-1.581 1.008-2.568 1.395-5.436 3.008-7.625 1.966-2.669 4.334-5.271 6.616-7.564 1.551-1.558 5.352-3.752 5.797-6.328.528-3.045-2.974-1.818-4.139-.904m-49.623 17.622c-1.088.374-1.175 1.564-1.423 2.846-1 5.152 9.114-.469 10.522-1.311-.469-1.654-5.078-1.353-6.145-1.418-.832-.05-2.15-.394-2.954-.117m59.74 2.676c-1.499.068-.808-7.169.896-6.441 1.461.625.065 6.396-.896 6.44M56.093 59.389c-2.295 2.341-5.898 2.655-8.75 3.407-4.205 1.108-8.372 2.52-12.543 3.793-2.633.804-1.15-1.114.168-1.834 2.267-1.24 4.834-1.9 7.257-2.582 2.623-.738 5.304-1.231 7.912-2.036 1.806-.558 4.135-1.985 5.956-.748m71.391-50.33c2.55.554 5.096 1.519 7.331 3.098 1.851 1.308 1.777 3.342-.569 2.161-10.944-5.507-24.524-2.171-35.211 2.705-1.18.538-1.091-.635-.735-1.54.49-1.245 1.54-1.968 2.546-2.547 3.025-1.739 6.511-2.722 9.8-3.445 5.481-1.203 11.331-1.626 16.838-.431m1.599-7.91c1.391.446 2.988 1.552 3.839 2.955.995 1.642.204 2.481-1.177 1.516-1.542-1.078-2.952-2.152-4.721-2.722-.934-.3-.896-.992-.225-1.6.628-.57 1.602-.368 2.284-.149" clip-rule="evenodd"/>
</svg>